# Blender 3.4.1
# www.blender.org
mtllib untitled.mtl
o Cube
v 1.000000 1.397370 -3.659306
v 1.000000 -0.893192 1.306990
v 1.000000 5.715730 0.533777
v 1.000000 0.504202 2.737825
v -1.000000 1.397370 -3.659306
v -1.000000 -1.000000 -1.000000
v -1.000000 5.715730 0.533777
v -1.000000 -1.000000 1.000000
v 0.000000 -1.000000 -1.000000
v 0.000000 5.715730 0.533777
v 0.000000 -1.000000 1.000000
v 0.000000 1.397370 -3.659306
v -1.000000 -1.000000 0.000000
v 1.000000 1.987606 -0.108693
v -1.000000 1.987606 -0.108693
v 1.000000 -0.194495 2.022408
v 0.000000 -1.000000 0.000000
v 0.000000 1.987606 -0.108693
v 1.000000 -0.177774 0.608293
v -1.000000 0.000000 1.000000
v 1.000000 1.219620 2.039129
v -1.000000 0.000000 -1.000000
v 0.000000 0.000000 -1.000000
v 0.000000 0.000000 1.000000
v 1.000000 0.520923 1.323711
v -1.000000 0.000000 0.000000
vn -0.0000 0.1698 -0.9855
vn -0.0000 0.0813 0.9967
vn -1.0000 -0.0000 -0.0000
vn 0.3390 -0.8713 0.3549
vn 1.0000 -0.0000 -0.0000
vn 0.2292 -0.8945 -0.3839
vn -0.0000 -0.8852 -0.4652
vn -0.0000 -1.0000 -0.0000
vn -0.5305 0.1607 0.8323
vn -0.0000 0.9865 -0.1640
vn -0.3667 -0.8616 0.3509
vn -0.8741 0.1832 0.4498
vn -0.0000 -0.0000 -1.0000
vn 0.8741 -0.1832 -0.4498
vn -0.0000 -0.0000 1.0000
vt 0.625000 0.500000
vt 0.375000 0.500000
vt 0.625000 0.750000
vt 0.375000 0.750000
vt 0.625000 0.250000
vt 0.875000 0.500000
vt 0.125000 0.500000
vt 0.375000 0.250000
vt 0.875000 0.750000
vt 0.625000 1.000000
vt 0.625000 0.000000
vt 0.125000 0.750000
vt 0.375000 0.000000
vt 0.375000 1.000000
vt 0.250000 0.500000
vt 0.375000 0.375000
vt 0.625000 0.875000
vt 0.750000 0.750000
vt 0.250000 0.750000
vt 0.375000 0.875000
vt 0.625000 0.375000
vt 0.750000 0.500000
vt 0.125000 0.625000
vt 0.375000 0.125000
vt 0.625000 0.625000
vt 0.625000 0.125000
vt 0.875000 0.625000
vt 0.375000 0.625000
vt 0.250000 0.625000
vt 0.750000 0.625000
vt 0.500000 0.500000
vt 0.500000 0.000000
vt 0.500000 1.000000
vt 0.500000 0.750000
vt 0.500000 0.250000
vt 0.500000 0.375000
vt 0.500000 0.875000
vt 0.500000 0.625000
vt 0.500000 0.125000
s 0
usemtl Material
f 18/30/1 15/27/1 7/9/1 10/18/1
f 24/37/2 10/17/2 7/10/2 20/33/2
f 26/39/3 15/26/3 5/5/3 22/35/3
f 17/29/4 16/28/4 4/4/4 11/19/4
f 25/38/5 14/25/5 3/3/5 21/34/5
f 23/36/6 12/21/6 1/1/6 19/31/6
f 22/35/7 5/5/7 12/21/7 23/36/7
f 13/23/8 17/29/8 11/19/8 8/12/8
f 21/34/9 3/3/9 10/17/9 24/37/9
f 14/25/1 18/30/1 10/18/1 3/3/1
f 1/1/10 12/22/10 18/30/10 14/25/10
f 6/7/8 9/15/8 17/29/8 13/23/8
f 19/31/5 1/1/5 14/25/5 25/38/5
f 9/15/11 2/2/11 16/28/11 17/29/11
f 20/32/3 7/11/3 15/26/3 26/39/3
f 12/22/10 5/6/10 15/27/10 18/30/10
f 8/13/3 20/32/3 26/39/3 13/24/3
f 2/2/5 19/31/5 25/38/5 16/28/5
f 4/4/12 21/34/12 24/37/12 11/20/12
f 6/8/13 22/35/13 23/36/13 9/16/13
f 9/16/14 23/36/14 19/31/14 2/2/14
f 16/28/5 25/38/5 21/34/5 4/4/5
f 13/24/3 26/39/3 22/35/3 6/8/3
f 11/20/15 24/37/15 20/33/15 8/14/15
